<svg xmlns="http://www.w3.org/2000/svg" viewBox="0 0 512 512">
  <defs>
    <linearGradient id="bg" x1="80" y1="80" x2="432" y2="432" gradientUnits="userSpaceOnUse">
      <stop stop-color="#ff6b6b"/>
      <stop offset="0.55" stop-color="#ff92bd"/>
      <stop offset="1" stop-color="#ffd457"/>
    </linearGradient>
  </defs>
  <rect width="512" height="512" rx="116" fill="url(#bg)"/>
  <circle cx="132" cy="128" r="22" fill="#fff6d9" opacity="0.88"/>
  <circle cx="390" cy="140" r="18" fill="#e8f8ff" opacity="0.9"/>
  <circle cx="386" cy="382" r="24" fill="#fff6d9" opacity="0.82"/>
  <path d="M132 140v152" stroke="#fffdf7" stroke-width="34" stroke-linecap="round"/>
  <path d="M190 140v152" stroke="#fffdf7" stroke-width="34" stroke-linecap="round"/>
  <path d="M132 286c0 38 58 38 58 0" fill="none" stroke="#fffdf7" stroke-width="34" stroke-linecap="round"/>
  <path d="M161 298v114" stroke="#fffdf7" stroke-width="34" stroke-linecap="round"/>
  <path d="M328 128c-36 42-54 92-54 150v52h108V128" fill="none" stroke="#fffdf7" stroke-width="34" stroke-linecap="round" stroke-linejoin="round"/>
  <path d="M328 332v80" stroke="#fffdf7" stroke-width="34" stroke-linecap="round"/>
  <path d="M116 92c38-24 88-36 140-36 54 0 104 13 141 38" fill="none" stroke="#fffdf7" stroke-width="18" stroke-linecap="round" opacity="0.5"/>
</svg>
